<svg width="13" height="12" viewBox="0 0 13 12" fill="none" xmlns="http://www.w3.org/2000/svg">
<path d="M9.2 6.5749L1 6.5749C0.716667 6.5749 0.479167 6.47907 0.2875 6.2874C0.0958333 6.09574 0 5.85824 0 5.5749C0 5.29157 0.0958333 5.05407 0.2875 4.8624C0.479167 4.67074 0.716667 4.5749 1 4.5749L9.2 4.5749L6.3 1.6749C6.11667 1.49157 6.025 1.25824 6.025 0.974902C6.025 0.691568 6.11667 0.458236 6.3 0.274902C6.48333 0.0915689 6.71667 -9.82285e-05 7 -9.82285e-05C7.28333 -9.82285e-05 7.51667 0.0915689 7.7 0.274902L12.3 4.8749C12.5 5.0749 12.6 5.30824 12.6 5.5749C12.6 5.84157 12.5 6.0749 12.3 6.2749L7.7 10.8749C7.51667 11.0582 7.28333 11.1499 7 11.1499C6.71667 11.1499 6.48333 11.0582 6.3 10.8749C6.11667 10.6916 6.025 10.4582 6.025 10.1749C6.025 9.89157 6.11667 9.65824 6.3 9.4749L9.2 6.5749Z" fill="white"/>
</svg>
