<svg width="54" height="114" viewBox="0 0 54 114" fill="none" xmlns="http://www.w3.org/2000/svg">
<g clip-path="url(#clip0_312_14)">
<path d="M7.03343 90.8625C6.98413 90.8625 6.93483 90.8597 6.88279 90.8542C6.37883 90.7934 5.96252 90.4288 5.82831 89.937C5.78175 89.7685 1.24615 72.7862 2.16642 53.6048C2.70872 42.2804 5.01486 32.3983 9.02186 24.2317C14.0669 13.949 21.8125 6.39023 32.0477 1.76271C37.3146 -0.618733 42.4144 -0.585581 46.4105 1.85664C50.0094 4.05575 52.3155 8.03128 52.5812 12.493C52.8606 17.1841 50.5407 23.5079 44.8548 33.4868C47.0185 34.4399 50.9516 36.7661 52.888 41.6506C55.4433 48.1042 53.5891 56.5885 47.3718 66.8657C40.3904 78.4083 32.1984 79.4774 24.9704 80.4223C18.3451 81.287 12.6235 82.0357 8.12624 90.216C7.90439 90.6194 7.48534 90.8653 7.03343 90.8653V90.8625ZM39.6043 2.52246C37.5502 2.52246 35.3371 3.03632 33.0693 4.06128C15.4336 12.0372 5.87761 28.7267 4.66702 53.6655C3.97682 67.8603 6.34323 80.8339 7.55929 86.4007C12.4592 79.5133 18.6463 78.7066 24.6472 77.922C31.6424 77.0076 38.8785 76.0627 45.2355 65.5507C51.02 55.9862 52.814 48.2589 50.5654 42.5816C48.3332 36.9457 42.7595 35.3765 42.7048 35.3627C42.3295 35.2604 42.0228 34.9869 41.8749 34.625C41.727 34.2631 41.7571 33.8487 41.9516 33.5116C47.9141 23.2399 50.3463 16.999 50.0861 12.6422C49.8697 9.00651 48.0127 5.77968 45.115 4.01155C43.4908 3.01974 41.6229 2.52522 39.6016 2.52522L39.6043 2.52246Z" fill="#F0EAE2"/>
<path d="M41.2038 114C36.3231 114 30.3961 111.48 23.5297 106.477C16.2881 101.2 9.62709 94.3047 6.29934 90.6635C5.83099 90.1524 5.86386 89.3539 6.37055 88.8843C6.87725 88.4119 7.66879 88.445 8.1344 88.9561C11.3992 92.5283 17.9287 99.2858 24.9923 104.436C32.8063 110.129 39.125 112.395 43.7756 111.163C46.1174 110.544 47.5525 109.519 48.0428 108.121C49.2342 104.709 45.2519 99.272 43.11 96.3519C42.5239 95.5507 42.0611 94.918 41.7899 94.4539C41.5954 94.1196 41.5626 93.7162 41.7023 93.3543C41.716 93.3157 43.2141 89.4037 42.8553 86.6327C42.2144 81.7123 39.6755 78.6678 35.5124 77.8252C34.8359 77.6871 34.3976 77.024 34.5346 76.3416C34.6715 75.6592 35.3289 75.2172 36.0054 75.3554C41.16 76.3997 44.5589 80.3917 45.3313 86.3067C45.6846 89.0058 44.7123 92.2962 44.2522 93.6527C44.4822 93.9842 44.7863 94.4014 45.1204 94.8545C47.7059 98.3824 52.0306 104.286 50.3982 108.958C49.6177 111.193 47.6018 112.754 44.411 113.599C43.3976 113.867 42.3267 114.003 41.2038 114.003V114Z" fill="#F0EAE2"/>
<path d="M5.92155 89.9396C5.92155 89.9396 5.90512 89.9396 5.8969 89.9396C5.2067 89.9258 4.65892 89.3511 4.67261 88.6549C4.97115 73.0844 7.49367 59.3979 12.1717 47.9742C15.9322 38.7855 21.0868 31.0333 27.4931 24.9278C38.4514 14.4848 49.144 12.526 49.5932 12.4459C50.2752 12.3271 50.9188 12.7885 51.0366 13.4736C51.1544 14.1588 50.6997 14.8108 50.0205 14.9296C49.9164 14.9489 39.5058 16.8855 29.0898 26.8727C19.4544 36.1112 7.82782 54.3367 7.17048 88.7047C7.15679 89.3926 6.6008 89.9396 5.92155 89.9396Z" fill="#F0EAE2"/>
<path d="M6.42261 89.9425C6.36509 89.9425 6.30757 89.9397 6.24732 89.9314C5.56533 89.8347 5.08877 89.1965 5.18463 88.5086C8.08511 67.7138 17.9917 53.787 25.7948 45.7669C34.258 37.0644 41.9488 33.3265 42.272 33.1718C42.8937 32.8734 43.6387 33.1414 43.9345 33.7685C44.2303 34.3984 43.9646 35.1471 43.3429 35.4455C43.2251 35.5035 35.6411 39.211 27.5039 47.6041C19.9966 55.348 10.457 68.7913 7.65785 88.8567C7.5702 89.4866 7.03612 89.9425 6.42261 89.9425Z" fill="#F0EAE2"/>
<path d="M42.8664 95.0728C42.6363 95.0728 42.4008 95.0093 42.1926 94.8739C42.0146 94.7607 24.2392 83.4612 8.70691 90.7465C8.08244 91.0393 7.33746 90.7658 7.04714 90.1359C6.75681 89.506 7.02796 88.7546 7.65243 88.4617C14.6257 85.1907 23.0505 84.9006 32.0204 87.6246C38.7389 89.6635 43.3512 92.6278 43.5429 92.7549C44.1235 93.1307 44.2906 93.9097 43.9181 94.4954C43.6798 94.8712 43.2772 95.0728 42.8664 95.0728Z" fill="#F0EAE2"/>
<path d="M47.8813 111.77C47.5636 111.77 47.2486 111.649 47.0076 111.403C46.9692 111.364 46.8788 111.265 46.7392 111.11C42.4528 106.331 27.126 90.8568 8.69595 90.8568C8.52887 90.8568 8.36454 90.8568 8.19747 90.8596C7.50453 90.8706 6.94032 90.3153 6.92936 89.6191C6.9184 88.9229 7.46892 88.351 8.15912 88.34C17.1126 88.2018 26.3207 91.4093 35.5617 97.8658C38.8155 100.139 43.7182 103.988 48.5907 109.419C48.681 109.522 48.744 109.591 48.7769 109.627C49.2535 110.124 49.248 110.922 48.7577 111.406C48.514 111.649 48.1962 111.77 47.8785 111.77H47.8813Z" fill="#F0EAE2"/>
<path d="M9.24101 100.283C8.48782 100.283 7.50455 100.01 6.28848 99.1311C4.9163 98.1421 3.52494 96.5811 2.37187 94.7384C0.0520273 91.0309 -1.04901 86.4807 1.33931 84.9584C1.86243 84.6269 2.44856 84.5219 3.03194 84.6601C4.54107 85.0137 5.62567 86.7956 7.26627 89.4948C7.56481 89.9838 7.87704 90.4977 8.20297 91.0198C8.53164 91.542 8.85483 92.0475 9.16706 92.531C10.8761 95.186 12.0046 96.9403 11.6731 98.4681C11.5444 99.062 11.1993 99.551 10.6789 99.8826C10.3694 100.079 9.89287 100.283 9.24101 100.283ZM2.58824 87.1879C2.29244 87.7377 2.45951 90.1634 4.48082 93.393C5.45312 94.9428 6.63906 96.2883 7.7401 97.0812C8.50973 97.6365 8.99999 97.7553 9.2191 97.7636C9.07942 97.0232 7.92908 95.2357 7.07181 93.9013C6.75683 93.4096 6.42543 92.8957 6.09128 92.3652C5.75714 91.832 5.43943 91.3099 5.13541 90.8126C4.30279 89.4451 3.18532 87.6106 2.58824 87.1852V87.1879Z" fill="#F0EAE2"/>
</g>
<defs>
<clipPath id="clip0_312_14">
<rect width="54" height="114" fill="white"/>
</clipPath>
</defs>
</svg>
