<svg width="12" height="7" viewBox="0 0 12 7" fill="none" xmlns="http://www.w3.org/2000/svg">
<path d="M5.588 6.563C5.45467 6.563 5.32967 6.54217 5.213 6.5005C5.09633 6.45883 4.988 6.388 4.888 6.288L0.288 1.688C0.104667 1.50467 0.00883333 1.2755 0.0005 1.0005C-0.00783333 0.7255 0.088 0.488 0.288 0.288C0.471333 0.104667 0.704667 0.013 0.988 0.013C1.27133 0.013 1.50467 0.104667 1.688 0.288L5.588 4.163L9.488 0.288C9.67133 0.104667 9.9005 0.00883333 10.1755 0.0005C10.4505 -0.00783333 10.688 0.088 10.888 0.288C11.0713 0.471333 11.163 0.704667 11.163 0.988C11.163 1.27133 11.0713 1.50467 10.888 1.688L6.288 6.288C6.188 6.388 6.07967 6.45883 5.963 6.5005C5.84633 6.54217 5.72133 6.563 5.588 6.563Z" fill="#5E574D"/>
</svg>
