<svg width="114" height="114" viewBox="0 0 114 114" fill="none" xmlns="http://www.w3.org/2000/svg">
<g clip-path="url(#clip0_312_13340)">
<path d="M81.437 64.661C80.8267 64.661 80.2386 64.4139 79.939 63.9854C79.51 63.373 79.8317 62.615 80.6565 62.2964L111.537 50.3743C112.361 50.0557 113.382 50.2947 113.811 50.9071C114.24 51.5196 113.919 52.2776 113.094 52.5961L82.2137 64.5182C81.9659 64.6144 81.6996 64.661 81.437 64.661Z" fill="#F0EAE2"/>
<path d="M74.5908 59.2012C74.1987 59.2012 73.8067 59.0996 73.4886 58.8963C72.7821 58.4432 72.7082 57.6522 73.3148 57.1304L106.658 28.5047C107.268 27.9829 108.334 27.9253 109.036 28.3757C109.743 28.8288 109.817 29.6198 109.21 30.1416L75.8668 58.7672C75.5339 59.0529 75.0642 59.2012 74.5908 59.2012Z" fill="#F0EAE2"/>
<path d="M67.1305 55.7902C66.916 55.7902 66.7015 55.76 66.4907 55.6969C65.6289 55.4332 65.2183 54.7027 65.5734 54.0628L89.5259 10.8236C89.881 10.1836 90.8648 9.8788 91.7266 10.1425C92.5884 10.4061 92.999 11.1366 92.6439 11.7766L68.6877 55.0158C68.4177 55.4991 67.7889 55.793 67.1269 55.793L67.1305 55.7902Z" fill="#F0EAE2"/>
<path d="M32.5667 64.661C32.304 64.661 32.0377 64.6144 31.7899 64.5182L0.909845 52.5961C0.0850443 52.2776 -0.236739 51.5223 0.192305 50.9071C0.621349 50.2947 1.64218 50.0557 2.46698 50.3743L33.3471 62.2964C34.1719 62.615 34.4936 63.3702 34.0646 63.9854C33.765 64.4139 33.1769 64.661 32.5667 64.661Z" fill="#F0EAE2"/>
<path d="M39.3352 59.1381C38.8618 59.1381 38.3921 58.9925 38.0592 58.7042L4.78977 30.1417C4.17949 29.6199 4.25716 28.8289 4.9636 28.3758C5.66635 27.9226 6.73156 27.9803 7.34184 28.5048L40.6113 57.0673C41.2215 57.5891 41.1439 58.3801 40.4374 58.8332C40.1193 59.0392 39.7273 59.1381 39.3352 59.1381Z" fill="#F0EAE2"/>
<path d="M47.0543 56.1198C46.3922 56.1198 45.7634 55.8287 45.4934 55.3426L21.356 11.7766C21.0009 11.1366 21.4115 10.4061 22.2733 10.1425C23.1351 9.8788 24.1189 10.1836 24.474 10.8236L48.6114 54.3923C48.9665 55.0322 48.5559 55.7628 47.6941 56.0264C47.4833 56.0896 47.2651 56.1198 47.0543 56.1198Z" fill="#F0EAE2"/>
<path d="M56.9999 54.5351C56.0679 54.5351 55.3134 53.9748 55.3134 53.2828V1.25235C55.3134 0.560264 56.0679 0 56.9999 0C57.932 0 58.6865 0.560264 58.6865 1.25235V53.2828C58.6865 53.9748 57.932 54.5351 56.9999 54.5351Z" fill="#F0EAE2"/>
<path d="M111.714 68.8824H84.4884C83.7968 68.8824 83.1791 68.5693 82.9239 68.0941C78.6815 60.201 68.5398 55.101 57.0962 55.101C45.6525 55.101 35.57 60.1735 31.3055 68.0227C31.0465 68.4951 30.4289 68.8055 29.7409 68.8055H2.21552C1.28346 68.8055 0.528931 68.2452 0.528931 67.5531C0.528931 66.861 1.28346 66.3008 2.21552 66.3008H28.6202C33.6393 57.9462 44.6909 52.5935 57.0925 52.5935C69.4941 52.5935 80.6123 57.9737 85.6091 66.3749H111.714C112.646 66.3749 113.401 66.9352 113.401 67.6273C113.401 68.3194 112.646 68.8796 111.714 68.8796V68.8824Z" fill="#F0EAE2"/>
<path d="M111.884 86.4234H2.11933C1.18727 86.4234 0.432739 85.8631 0.432739 85.1711C0.432739 84.479 1.18727 83.9187 2.11933 83.9187H111.884C112.816 83.9187 113.571 84.479 113.571 85.1711C113.571 85.8631 112.816 86.4234 111.884 86.4234Z" fill="#F0EAE2"/>
<path d="M103.274 93.317H10.7261C9.79408 93.317 9.03955 92.7567 9.03955 92.0646C9.03955 91.3725 9.79408 90.8123 10.7261 90.8123H103.274C104.206 90.8123 104.961 91.3725 104.961 92.0646C104.961 92.7567 104.206 93.317 103.274 93.317Z" fill="#F0EAE2"/>
<path d="M90.2694 100.213H23.7305C22.7985 100.213 22.0439 99.6527 22.0439 98.9606C22.0439 98.2685 22.7985 97.7083 23.7305 97.7083H90.2731C91.2051 97.7083 91.9597 98.2685 91.9597 98.9606C91.9597 99.6527 91.2051 100.213 90.2731 100.213H90.2694Z" fill="#F0EAE2"/>
<path d="M80.5863 107.107H33.4173C32.4852 107.107 31.7307 106.546 31.7307 105.854C31.7307 105.162 32.4852 104.602 33.4173 104.602H80.5863C81.5183 104.602 82.2729 105.162 82.2729 105.854C82.2729 106.546 81.5183 107.107 80.5863 107.107Z" fill="#F0EAE2"/>
<path d="M69.7345 114H44.2656C43.3335 114 42.579 113.44 42.579 112.747C42.579 112.055 43.3335 111.495 44.2656 111.495H69.7345C70.6666 111.495 71.4211 112.055 71.4211 112.747C71.4211 113.44 70.6666 114 69.7345 114Z" fill="#F0EAE2"/>
</g>
<defs>
<clipPath id="clip0_312_13340">
<rect width="114" height="114" fill="white"/>
</clipPath>
</defs>
</svg>
