<svg width="114" height="114" viewBox="0 0 114 114" fill="none" xmlns="http://www.w3.org/2000/svg">
<path d="M76.2999 37.913C75.9732 37.913 75.6437 37.7888 75.3973 37.5431C74.91 37.0571 74.9183 36.2768 75.4194 35.8016L97.0133 15.2387C97.5117 14.7635 98.3119 14.7716 98.7992 15.2603C99.2865 15.7463 99.2782 16.5266 98.7771 17.0018L77.1832 37.5647C76.9367 37.7996 76.6183 37.9157 76.2999 37.9157V37.913Z" fill="#F0EAE2"/>
<path d="M97.0494 97.0558C96.7226 97.0558 96.3932 96.9316 96.1467 96.6859L75.0595 75.6288C74.5722 75.1428 74.5805 74.3626 75.0817 73.8874C75.5801 73.4122 76.3802 73.4203 76.8675 73.909L97.9548 94.966C98.4421 95.452 98.4338 96.2323 97.9326 96.7075C97.6862 96.9424 97.3678 97.0585 97.0494 97.0585V97.0558Z" fill="#F0EAE2"/>
<path d="M37.7028 37.913C37.3844 37.913 37.066 37.7969 36.8196 37.562L15.2257 16.9991C14.7273 16.5239 14.7162 15.7436 15.2035 15.2576C15.6908 14.7716 16.491 14.7608 16.9894 15.236L38.5833 35.7989C39.0817 36.2741 39.0928 37.0544 38.6054 37.5404C38.359 37.7861 38.0295 37.9103 37.7028 37.9103V37.913Z" fill="#F0EAE2"/>
<path d="M17.0835 97.0558C16.7651 97.0558 16.4467 96.9397 16.2003 96.7048C15.7019 96.2296 15.6908 95.4493 16.1781 94.9633L37.2653 73.9063C37.7526 73.4203 38.5528 73.4095 39.0512 73.8847C39.5496 74.3599 39.5607 75.1401 39.0734 75.6261L17.9862 96.6832C17.7397 96.9289 17.4102 97.0531 17.0835 97.0531V97.0558Z" fill="#F0EAE2"/>
<path d="M57.0014 72.9963C47.3742 72.9963 39.5441 65.3581 39.5441 55.973C39.5441 46.5879 47.3742 38.9497 57.0014 38.9497C66.6285 38.9497 74.4587 46.5879 74.4587 55.973C74.4587 65.3581 66.6285 72.9963 57.0014 72.9963ZM57.0014 41.4094C48.767 41.4094 42.0692 47.9406 42.0692 55.9703C42.0692 64 48.767 70.5312 57.0014 70.5312C65.2358 70.5312 71.9335 64 71.9335 55.9703C71.9335 47.9406 65.2358 41.4094 57.0014 41.4094Z" fill="#F0EAE2"/>
<path d="M57.0679 33.0611C56.3701 33.0611 55.8053 32.5103 55.8053 31.8299V1.23118C55.8053 0.550793 56.3701 0 57.0679 0C57.7656 0 58.3304 0.550793 58.3304 1.23118V31.8299C58.3304 32.5103 57.7656 33.0611 57.0679 33.0611Z" fill="#F0EAE2"/>
<path d="M112.737 56.7507H81.3585C80.6608 56.7507 80.0959 56.1999 80.0959 55.5195C80.0959 54.8391 80.6608 54.2883 81.3585 54.2883H112.737C113.435 54.2883 114 54.8391 114 55.5195C114 56.1999 113.435 56.7507 112.737 56.7507Z" fill="#F0EAE2"/>
<path d="M32.6414 56.7507H1.26257C0.564836 56.7507 0 56.1999 0 55.5195C0 54.8391 0.564836 54.2883 1.26257 54.2883H32.6414C33.3392 54.2883 33.904 54.8391 33.904 55.5195C33.904 56.1999 33.3392 56.7507 32.6414 56.7507Z" fill="#F0EAE2"/>
<path d="M57.0679 111.943C56.3701 111.943 55.8053 111.393 55.8053 110.712V80.1135C55.8053 79.4331 56.3701 78.8823 57.0679 78.8823C57.7656 78.8823 58.3304 79.4331 58.3304 80.1135V110.712C58.3304 111.393 57.7656 111.943 57.0679 111.943Z" fill="#F0EAE2"/>
<path d="M81.2949 47.7028C80.8076 47.7028 80.3424 47.4274 80.1376 46.963C79.8607 46.3393 80.1514 45.613 80.791 45.343L95.1306 39.2573C95.7702 38.9846 96.515 39.2708 96.7919 39.8945C97.0688 40.5182 96.7781 41.2445 96.1385 41.5145L81.7988 47.6002C81.6355 47.6704 81.4638 47.7028 81.2949 47.7028Z" fill="#F0EAE2"/>
<path d="M67.2903 33.7195C67.1436 33.7195 66.9913 33.6952 66.8473 33.6412C66.1939 33.4009 65.8644 32.6908 66.1108 32.0564L72.0167 16.7583C72.2631 16.1212 72.9885 15.7999 73.6419 16.0402C74.2954 16.2805 74.6249 16.9905 74.3784 17.625L68.4726 32.923C68.2815 33.4171 67.8025 33.7222 67.2903 33.7222V33.7195Z" fill="#F0EAE2"/>
<path d="M73.1961 95.9864C72.7088 95.9864 72.2436 95.711 72.0387 95.2466L65.7978 81.2635C65.521 80.6398 65.8117 79.9135 66.4513 79.6435C67.0909 79.3709 67.8357 79.657 68.1126 80.2807L74.3534 94.2639C74.6303 94.8876 74.3396 95.6138 73.7 95.8838C73.5366 95.954 73.365 95.9864 73.1961 95.9864Z" fill="#F0EAE2"/>
<path d="M96.9829 74.1058C96.8361 74.1058 96.6838 74.0815 96.5399 74.0275L80.8518 68.2685C80.1984 68.0282 79.8689 67.3181 80.1153 66.6836C80.3617 66.0464 81.0872 65.7252 81.7406 65.9654L97.4286 71.7245C98.0821 71.9648 98.4116 72.6749 98.1651 73.3094C97.9741 73.8034 97.4951 74.1085 96.9829 74.1085V74.1058Z" fill="#F0EAE2"/>
<path d="M32.5749 47.7028C32.406 47.7028 32.2371 47.6704 32.071 47.6002L17.7314 41.5145C17.0918 41.2445 16.7983 40.5182 17.0779 39.8945C17.3576 39.2708 18.0996 38.9846 18.7392 39.2573L33.0789 45.343C33.7185 45.6157 34.012 46.3393 33.7323 46.963C33.5246 47.4274 33.0623 47.7028 32.5749 47.7028Z" fill="#F0EAE2"/>
<path d="M46.5769 33.7198C46.0674 33.7198 45.5856 33.4147 45.3946 32.9206L39.4887 17.6226C39.2423 16.9854 39.5718 16.2753 40.2252 16.0377C40.8787 15.7974 41.6069 16.1187 41.8505 16.7559L47.7564 32.0539C48.0028 32.6911 47.6733 33.4012 47.0199 33.6388C46.8731 33.6928 46.7236 33.7171 46.5769 33.7171V33.7198Z" fill="#F0EAE2"/>
<path d="M40.8039 95.9864C40.635 95.9864 40.4661 95.954 40.3 95.8838C39.6604 95.6111 39.3669 94.8876 39.6465 94.2639L45.8874 80.2807C46.1671 79.657 46.9119 79.3709 47.5487 79.6435C48.1883 79.9162 48.4818 80.6398 48.2022 81.2635L41.9613 95.2466C41.7536 95.711 41.2912 95.9864 40.8039 95.9864Z" fill="#F0EAE2"/>
<path d="M17.0171 74.1059C16.5076 74.1059 16.0258 73.8008 15.8348 73.3067C15.5884 72.6695 15.9179 71.9594 16.5713 71.7218L32.2593 65.9628C32.9128 65.7225 33.641 66.0438 33.8846 66.681C34.1311 67.3181 33.8016 68.0282 33.1481 68.2658L17.4601 74.0249C17.3133 74.0789 17.1638 74.1032 17.0171 74.1032V74.1059Z" fill="#F0EAE2"/>
</svg>
