<svg width="365" height="490" viewBox="0 0 365 490" fill="none" xmlns="http://www.w3.org/2000/svg">
<g opacity="0.25">
<path d="M459.459 386.179C453.031 398.615 444.57 410.437 434.598 421.407C428.028 422.069 419.756 422.731 410.398 422.826C378.589 423.488 341.155 416.017 312.323 399.656C272.006 376.58 257.874 359.084 231.689 333.03C196.808 301.348 165.376 288.912 131.157 278.934C96.7478 269.524 62.1499 267.775 28.9699 271.274C25.2832 243.659 25.3305 211.835 33.8854 179.492C37.5248 165.779 51.5625 115.703 98.4493 78.0156C172.986 18.1514 267.658 39.9975 277.773 42.5037C416.684 76.928 520.005 269.288 459.412 386.132M219.022 482.69C197.328 477.347 176.058 468.788 154.222 456.446C114.047 433.749 76.991 398.095 55.2019 356.956C51.468 351.093 41.2588 329.436 34.1217 299.22C63.8514 289.006 96.8896 286.311 128.273 291.702C167.503 298.132 207.017 316.054 241.568 350.573C256.456 364.38 268.13 378.377 284.153 391.381C321.634 422.826 367.481 439.565 408.838 445.24C381.566 466.518 348.386 481.934 314.923 487.703C270.919 495.268 230.129 485.433 218.928 482.69M299.184 4.06008C19.7532 -44.8338 -120.387 361.354 131.204 498.011C254.66 565.063 400.047 515.318 466.643 392.185C549.073 239.781 479.263 35.5526 299.184 4.06008Z" fill="#CBD1B4"/>
</g>
</svg>
