<svg width="154" height="40" viewBox="0 0 154 40" fill="none" xmlns="http://www.w3.org/2000/svg">
<g clip-path="url(#clip0_121_32110)">
<path d="M87.1918 38.7534C87.1918 38.8143 87.2132 38.8716 87.256 38.9146L87.5982 39.2549C87.6303 39.2871 87.6731 39.3015 87.7158 39.3015L91.7762 39.1438C91.8688 39.1438 91.9437 39.065 91.9437 38.9719L91.9544 24.5674C91.9758 24.5424 91.99 24.5244 92.0114 24.4994C95.9327 24.0229 101.387 23.4211 111.9 30.317C103.85 24.3346 99.8006 23.0306 92.015 21.8198C91.9936 21.7947 91.9758 21.7768 91.9544 21.7517L91.9687 1.458C91.9687 1.38277 91.9401 1.30754 91.8867 1.25381L91.5444 0.906322C91.5052 0.866917 91.4553 0.845423 91.4018 0.845423H87.78C87.6909 0.845423 87.6196 0.917069 87.6196 1.00304C87.6018 2.43955 87.4806 13.3942 87.37 23.1524C87.395 23.1739 87.4057 23.1847 87.4271 23.2062C89.926 22.9303 92.3537 22.9339 94.7278 23.2062C92.0863 22.9912 89.4305 23.6934 87.3772 25.9251C87.3665 25.9538 87.3487 25.9968 87.338 26.0254L87.1954 38.7534H87.1918Z" fill="white"/>
<path d="M66.4517 35.6511C65.1149 36.7114 63.6926 37.4387 62.206 37.9187C57.7678 39.3695 52.7949 38.5957 48.0644 37.9939C48.0288 37.9903 48.0038 37.9617 48.0038 37.9258L48.0715 2.25327C48.0715 2.22103 48.0965 2.19237 48.1286 2.1852C50.8521 1.72309 53.736 1.30396 56.5522 1.31829C60.6839 1.33262 64.6693 2.27476 67.7992 5.39495C73.2677 10.8544 74.1767 22.2139 70.6689 29.9803C70.6689 29.9982 70.6689 30.009 70.6689 30.009C72.323 30.0913 73.617 29.9696 75.2069 29.3785C75.2853 29.3498 75.3388 29.4609 75.264 29.5039C73.1358 30.6502 71.6065 31.166 69.407 32.3339C69.3963 32.3375 69.3891 32.3482 69.382 32.3554C68.555 33.6307 67.5818 34.7519 66.4553 35.6511M74.0519 31.4168C74.0662 31.3953 74.0804 31.3702 74.0947 31.3487C77.8413 28.0387 82.3472 25.5884 87.3986 24.3346L87.4414 24.3203C82.8748 24.9901 78.7789 26.5807 75.5242 28.7731L75.4992 28.7838L75.8022 28.1211C79.3813 19.6203 77.7058 8.28229 69.6458 3.59305C65.0044 0.891993 59.896 0.730789 54.695 0.712878C51.1836 0.702131 47.5974 1.16783 44.1217 0.849005C44.0647 0.845423 44.0112 0.859752 43.9649 0.891993L43.644 1.11768C43.5977 1.14992 43.5692 1.20365 43.5692 1.26455L43.8651 39.0614C43.8651 39.1008 43.8971 39.1295 43.9364 39.1295C52.6345 38.7068 62.231 41.2431 69.8383 35.8338C71.4995 34.6516 72.904 33.1435 74.0448 31.4204" fill="white"/>
<path d="M126.579 33.7811H126.583V33.7775C127.225 32.4772 127.542 30.9726 127.464 29.185C126.94 17.17 107.062 17.2846 106.631 7.12878C106.349 0.501523 114.42 -0.232849 119.158 1.52964C121.132 2.26402 122.669 3.82232 124.102 5.30897C124.184 5.39495 124.326 5.36271 124.369 5.25166C125.303 2.68315 123.984 2.07774 121.717 1.28963C115.596 -0.838259 103.832 -0.608991 102.97 7.91331C101.922 18.2877 115.739 20.1576 121.2 26.1866C123.314 28.5187 124.038 31.0801 123.621 33.3083C123.617 33.3333 123.61 33.3548 123.606 33.3799C125.799 34.4653 126.148 34.7698 128.469 34.931C125.866 34.9561 125.143 35.3215 122.612 35.7478C122.598 35.7693 122.583 35.7872 122.569 35.8087C121.271 37.6751 118.929 38.9826 115.803 39.1689C110.516 39.4877 106.495 37.6608 102.824 33.9853C102.806 33.9674 102.774 33.9781 102.774 34.0068V36.7437C102.774 37.6679 110.823 39.6274 111.939 39.7385C116.459 40.1899 121.781 39.1976 124.875 36.1454C127.717 35.5651 130.665 35.2929 135.652 35.0099C132.372 34.9812 129.289 34.5406 126.583 33.7847" fill="white"/>
<path d="M142.479 33.688C144.104 33.5339 145.63 33.276 147.009 32.9357C149.679 32.3016 152.767 31.1338 154 29.0238C153.861 29.2638 153.711 29.4967 153.558 29.7188C151.419 32.2766 147.448 34.3471 142.482 35.497L142.475 39.0829C142.475 39.1152 142.45 39.1402 142.418 39.1402L138.244 39.3015C138.201 39.3015 138.162 39.2871 138.129 39.2585L137.762 38.8895C137.737 38.8644 137.723 38.8286 137.723 38.7892L137.752 35.3502C139.031 35.1424 140.104 34.974 141.794 34.5513C140.158 34.6874 139.249 34.734 137.773 34.5083L138.151 0.942145C138.151 0.88841 138.194 0.845423 138.247 0.845423H141.947C141.99 0.845423 142.029 0.863334 142.061 0.891993L142.443 1.28246C142.475 1.3147 142.496 1.36127 142.496 1.40784L142.479 33.688Z" fill="white"/>
<path d="M34.6536 29.2567C34.1687 30.1988 33.5306 31.0944 32.7785 31.9255C32.283 31.9756 31.6591 32.0258 30.9533 32.033C28.5542 32.0831 25.7308 31.5171 23.5563 30.2776C20.5155 28.5295 19.4496 27.204 17.4747 25.2302C14.8439 22.83 12.4733 21.8879 9.89235 21.132C7.29717 20.4191 4.68772 20.2866 2.18522 20.5517C1.90717 18.4596 1.91073 16.0487 2.55596 13.5984C2.83046 12.5595 3.8892 8.76589 7.4255 5.9108C13.0472 1.3756 20.1875 3.03062 20.9504 3.22048C31.4274 5.8284 39.2201 20.4012 34.65 29.2531M16.5193 36.5681C14.8831 36.1633 13.2789 35.515 11.632 34.58C8.60189 32.8605 5.80708 30.1594 4.1637 27.0428C3.88208 26.5986 3.11208 24.9579 2.57379 22.6688C4.81606 21.895 7.30786 21.6908 9.6749 22.0992C12.6337 22.5864 15.6139 23.9441 18.2198 26.5592C19.3427 27.6052 20.2232 28.6656 21.4317 29.6507C24.2586 32.033 27.7164 33.3011 30.8356 33.731C28.7787 35.343 26.2762 36.5108 23.7524 36.9479C20.4335 37.521 17.3571 36.7759 16.5122 36.5681M22.5653 0.308072C1.49009 -3.39603 -9.07959 27.376 9.89592 37.7288C19.2072 42.8085 30.1726 39.0399 35.1954 29.7116C41.4124 18.1659 36.1472 2.69389 22.5653 0.308072Z" fill="white"/>
</g>
<defs>
<clipPath id="clip0_121_32110">
<rect width="154" height="40" fill="white"/>
</clipPath>
</defs>
</svg>
