<svg width="114" height="114" viewBox="0 0 114 114" fill="none" xmlns="http://www.w3.org/2000/svg">
<path d="M111.884 86.4234H2.11933C1.18727 86.4234 0.432739 85.8631 0.432739 85.1711C0.432739 84.479 1.18727 83.9187 2.11933 83.9187H111.884C112.816 83.9187 113.571 84.479 113.571 85.1711C113.571 85.8631 112.816 86.4234 111.884 86.4234Z" fill="#F0EAE2"/>
<path d="M103.274 93.317H10.7261C9.79408 93.317 9.03955 92.7567 9.03955 92.0646C9.03955 91.3725 9.79408 90.8123 10.7261 90.8123H103.274C104.206 90.8123 104.961 91.3725 104.961 92.0646C104.961 92.7567 104.206 93.317 103.274 93.317Z" fill="#F0EAE2"/>
<path d="M90.2694 100.213H23.7305C22.7985 100.213 22.0439 99.6527 22.0439 98.9606C22.0439 98.2685 22.7985 97.7083 23.7305 97.7083H90.2731C91.2051 97.7083 91.9597 98.2685 91.9597 98.9606C91.9597 99.6527 91.2051 100.213 90.2731 100.213H90.2694Z" fill="#F0EAE2"/>
<path d="M80.5863 107.107H33.4173C32.4852 107.107 31.7307 106.546 31.7307 105.854C31.7307 105.162 32.4852 104.602 33.4173 104.602H80.5863C81.5183 104.602 82.2729 105.162 82.2729 105.854C82.2729 106.546 81.5183 107.107 80.5863 107.107Z" fill="#F0EAE2"/>
<path d="M69.7345 114H44.2656C43.3335 114 42.579 113.44 42.579 112.747C42.579 112.055 43.3335 111.495 44.2656 111.495H69.7345C70.6666 111.495 71.4211 112.055 71.4211 112.747C71.4211 113.44 70.6666 114 69.7345 114Z" fill="#F0EAE2"/>
<g clip-path="url(#clip0_312_2239)">
<path d="M85.6372 40.2675L49.4674 43.3259C47.8047 43.4665 46.1277 43.4384 44.4626 43.2637L28.2413 41.4317C24.7343 41.0002 21.7991 38.4331 20.9735 34.9839C20.8221 34.3414 21.227 33.6762 21.8694 33.5248C22.5119 33.3734 23.1771 33.7782 23.3285 34.4207C23.924 36.8701 25.9988 38.7333 28.5216 39.0054L44.7428 40.8373C46.2372 41.0022 47.7696 41.0425 49.2636 40.9162L85.4334 37.8578C86.1082 37.8008 86.5935 37.2258 86.5364 36.5511L86.1289 31.7317C86.0718 31.0569 85.4969 30.5716 84.8222 30.6287L81.2076 30.9343C80.8943 30.9608 80.5709 30.8668 80.3336 30.6442L78.1906 28.8353C76.4898 27.3773 74.2216 26.6711 72.0046 26.8586L67.5466 27.2355C66.8719 27.2926 66.297 26.8073 66.2399 26.1326C66.1829 25.4578 66.6682 24.8829 67.3429 24.8258L71.8009 24.4489C74.6684 24.2064 77.5615 25.1267 79.7568 26.9797L81.5099 28.4818L84.6184 28.219C86.6185 28.0498 88.3695 29.5278 88.5386 31.5279L88.9461 36.3473C89.1152 38.3474 87.6373 40.0984 85.6372 40.2675Z" fill="#F0EAE2"/>
<path d="M49.0882 28.7962L32.6058 30.1899C32.1961 30.2245 31.8184 30.0623 31.5489 29.7453L26.5245 23.4233L22.3557 23.7758L22.865 29.8001C22.9221 30.4748 22.4368 31.0498 21.7621 31.1068C21.0873 31.1639 20.5124 30.6785 20.4553 30.0038L19.9459 23.9795C19.8339 22.6542 20.8266 21.4781 22.1519 21.3661L26.3207 21.0136C27.14 20.9443 27.9217 21.2908 28.4104 21.9047L33.0286 27.7272L48.8604 26.3885C49.5351 26.3315 50.1101 26.8168 50.1671 27.4915C50.2242 28.1662 49.7389 28.7412 49.0641 28.7983L49.0882 28.7962Z" fill="#F0EAE2"/>
<path d="M90.8641 44.6793C90.1894 44.7364 89.6144 44.2511 89.5574 43.5763L88.9461 36.3472C88.8891 35.6725 89.3744 35.0975 90.0491 35.0405C90.7238 34.9834 91.2988 35.4687 91.3558 36.1434L91.9671 43.3726C92.0242 44.0473 91.5388 44.6223 90.8641 44.6793Z" fill="#F0EAE2"/>
<path d="M89.5397 29.0162C88.865 29.0732 88.29 28.5879 88.233 27.9132L87.9273 24.2986C87.8703 23.6239 88.3556 23.0489 89.0303 22.9919C89.705 22.9348 90.28 23.4201 90.337 24.0949L90.6427 27.7094C90.6997 28.3841 90.2144 28.9591 89.5397 29.0162Z" fill="#F0EAE2"/>
<path d="M90.2528 37.4501L87.8431 37.6539C87.1684 37.7109 86.5934 37.2256 86.5364 36.5509L86.1289 31.7315C86.0718 31.0567 86.5571 30.4818 87.2318 30.4247L89.6416 30.221C91.6416 30.0519 93.3926 31.5299 93.5618 33.5299C93.7309 35.53 92.2529 37.281 90.2528 37.4501ZM88.8442 35.1423L90.0491 35.0404C90.7238 34.9834 91.2091 34.4084 91.152 33.7337C91.095 33.059 90.52 32.5736 89.8453 32.6307L88.6404 32.7326L88.8442 35.1423Z" fill="#F0EAE2"/>
<path d="M65.3407 29.8489L47.2678 31.377C46.81 31.4157 46.3779 31.1853 46.1264 30.794C45.8749 30.4027 45.8823 29.9167 46.1409 29.5308L46.7823 28.5058C48.6224 25.5834 51.6446 23.7261 55.0905 23.4347L64.7294 22.6197C66.7295 22.4506 68.4805 23.9286 68.6496 25.9287C68.8187 27.9287 67.3407 29.6797 65.3407 29.8489ZM49.5942 28.7534L65.1369 27.4392C65.8116 27.3821 66.2969 26.8071 66.2399 26.1324C66.1828 25.4577 65.6079 24.9724 64.9331 25.0294L55.2943 25.8445C53.0533 26.034 51.0302 27.0787 49.5942 28.7534Z" fill="#F0EAE2"/>
<path d="M81.2076 30.9341L72.7736 31.6473C72.0989 31.7043 71.5239 31.219 71.4669 30.5443L71.0634 25.7731C71.0349 25.4357 71.155 25.1343 71.3515 24.875C71.548 24.6157 71.8752 24.4667 72.1905 24.4643C74.9678 24.3023 77.642 25.2168 79.7348 27.0057L81.8778 28.8146C82.2437 29.1234 82.409 29.6434 82.255 30.1175C82.1009 30.5916 81.6916 30.9175 81.2096 30.9582L81.2076 30.9341ZM73.7747 29.1357L78.0881 28.771C76.8075 27.69 75.2483 27.0453 73.5852 26.8947L73.7747 29.1357Z" fill="#F0EAE2"/>
<path d="M78.268 57.8792L65.4724 58.9611C61.3759 59.3075 57.1765 59.2985 53.0189 58.922L39.9835 57.7429C38.443 57.6062 37.2466 56.3725 37.1182 54.8544C36.9695 53.0953 38.271 51.5534 40.0301 51.4046L86.6822 47.4599C88.4412 47.3112 89.9832 48.6127 90.1319 50.3718L90.1686 50.8055C90.2705 52.0104 89.6895 53.1759 88.65 53.7977L86.1795 55.2929C83.8276 56.7538 81.0873 57.6408 78.268 57.8792ZM40.2338 53.8143C39.8242 53.849 39.4933 54.241 39.5279 54.6507C39.5585 55.0121 39.85 55.303 40.2176 55.3447L53.2529 56.5238C57.2639 56.8885 61.3167 56.8855 65.2686 56.5514L78.0642 55.4694C80.498 55.2637 82.8829 54.4795 84.9118 53.2158L87.3822 51.7207C87.613 51.5798 87.7592 51.3005 87.7348 51.0113L87.6981 50.5776C87.6635 50.1679 87.2715 49.837 86.8618 49.8717L40.2338 53.8143Z" fill="#F0EAE2"/>
<path d="M81.6328 50.3139C80.9581 50.3709 80.3831 49.8856 80.3261 49.2109L79.5111 39.572C79.454 38.8973 79.9393 38.3224 80.614 38.2653C81.2888 38.2083 81.8637 38.6936 81.9208 39.3683L82.7358 49.0072C82.7928 49.6819 82.3075 50.2568 81.6328 50.3139Z" fill="#F0EAE2"/>
<path d="M81.6328 50.3138C81.3677 50.3362 81.0945 50.2622 80.8633 50.1119L67.9997 41.4918C67.435 41.127 67.2975 40.362 67.6643 39.8213C68.0312 39.2806 68.7942 39.119 69.3348 39.4859L82.1984 48.106C82.7632 48.4708 82.9007 49.2358 82.5338 49.7765C82.3173 50.086 81.9701 50.2853 81.6328 50.3138Z" fill="#F0EAE2"/>
<path d="M59.9453 52.1476C59.2706 52.2047 58.6956 51.7194 58.6386 51.0446L57.8236 41.4058C57.7665 40.7311 58.2518 40.1561 58.9265 40.099C59.6013 40.042 60.1762 40.5273 60.2333 41.202L61.0483 50.8409C61.1053 51.5156 60.62 52.0906 59.9453 52.1476Z" fill="#F0EAE2"/>
<path d="M29.3987 35.315L22.1696 35.9262C21.4949 35.9833 20.9199 35.498 20.8629 34.8233C20.8058 34.1485 21.2911 33.5736 21.9658 33.5165L29.195 32.9053C29.8697 32.8482 30.4447 33.3335 30.5017 34.0082C30.5588 34.683 30.0735 35.2579 29.3987 35.315Z" fill="#F0EAE2"/>
</g>
<defs>
<clipPath id="clip0_312_2239">
<rect width="72.5494" height="41.1113" fill="white" transform="translate(19.7422 21.5698) rotate(-4.8332)"/>
</clipPath>
</defs>
</svg>
