<svg width="64" height="53" viewBox="0 0 64 53" fill="none" xmlns="http://www.w3.org/2000/svg">
<path d="M24.0252 0L25.0347 1.4053C17.3628 6.22348 13.3249 12.6477 13.3249 19.6742C13.3249 27.1023 18.9779 34.7311 27.6593 40.1515L17.1609 53C6.66246 48.9848 0 40.3523 0 29.9129C0 17.2651 11.306 6.22348 24.0252 0ZM60.3659 0L61.3754 1.4053C53.7035 6.22348 49.6656 12.6477 49.6656 19.6742C49.6656 27.1023 55.3186 34.7311 64 40.1515L53.5016 53C43.0032 48.9848 36.3407 40.3523 36.3407 29.9129C36.3407 17.2651 47.6467 6.22348 60.3659 0Z" fill="#F0EAE2"/>
</svg>
