<svg width="24" height="24" viewBox="0 0 24 24" fill="none" xmlns="http://www.w3.org/2000/svg">
<mask id="mask0_319_43976" style="mask-type:alpha" maskUnits="userSpaceOnUse" x="0" y="0" width="24" height="24">
<rect width="24" height="24" fill="#D9D9D9"/>
</mask>
<g mask="url(#mask0_319_43976)">
<path d="M11.875 20C11.9416 20 12.0083 19.9833 12.075 19.95C12.1416 19.9167 12.1916 19.8833 12.225 19.85L20.425 11.65C20.625 11.45 20.7708 11.225 20.8625 10.975C20.9541 10.725 21 10.475 21 10.225C21 9.95833 20.9541 9.70417 20.8625 9.4625C20.7708 9.22083 20.625 9.00833 20.425 8.825L16.175 4.575C15.9916 4.375 15.7791 4.22917 15.5375 4.1375C15.2958 4.04583 15.0416 4 14.775 4C14.525 4 14.275 4.04583 14.025 4.1375C13.775 4.22917 13.55 4.375 13.35 4.575L13.075 4.85L14.925 6.725C15.175 6.95833 15.3583 7.225 15.475 7.525C15.5916 7.825 15.65 8.14167 15.65 8.475C15.65 9.175 15.4125 9.7625 14.9375 10.2375C14.4625 10.7125 13.875 10.95 13.175 10.95C12.8416 10.95 12.5208 10.8917 12.2125 10.775C11.9041 10.6583 11.6333 10.4833 11.4 10.25L9.52496 8.4L5.14996 12.775C5.09996 12.825 5.06246 12.8792 5.03746 12.9375C5.01246 12.9958 4.99996 13.0583 4.99996 13.125C4.99996 13.2583 5.04996 13.3792 5.14996 13.4875C5.24996 13.5958 5.36663 13.65 5.49996 13.65C5.56663 13.65 5.6333 13.6333 5.69996 13.6C5.76663 13.5667 5.81663 13.5333 5.84996 13.5L8.54996 10.8C8.7333 10.6167 8.96246 10.5208 9.23746 10.5125C9.51246 10.5042 9.74996 10.6 9.94996 10.8C10.1333 10.9833 10.225 11.2167 10.225 11.5C10.225 11.7833 10.1333 12.0167 9.94996 12.2L7.27496 14.9C7.22496 14.95 7.18746 15.0042 7.16246 15.0625C7.13746 15.1208 7.12496 15.1833 7.12496 15.25C7.12496 15.3833 7.17496 15.5 7.27496 15.6C7.37496 15.7 7.49163 15.75 7.62496 15.75C7.69163 15.75 7.7583 15.7333 7.82496 15.7C7.89163 15.6667 7.94163 15.6333 7.97496 15.6L10.675 12.925C10.8583 12.7417 11.0875 12.6458 11.3625 12.6375C11.6375 12.6292 11.875 12.725 12.075 12.925C12.2583 13.1083 12.35 13.3417 12.35 13.625C12.35 13.9083 12.2583 14.1417 12.075 14.325L9.39996 17.025C9.34996 17.0583 9.31246 17.1083 9.28746 17.175C9.26246 17.2417 9.24996 17.3083 9.24996 17.375C9.24996 17.5083 9.29996 17.625 9.39996 17.725C9.49996 17.825 9.61663 17.875 9.74996 17.875C9.81663 17.875 9.87913 17.8625 9.93746 17.8375C9.9958 17.8125 10.05 17.775 10.1 17.725L12.8 15.05C12.9833 14.8667 13.2125 14.7708 13.4875 14.7625C13.7625 14.7542 14 14.85 14.2 15.05C14.3833 15.2333 14.475 15.4667 14.475 15.75C14.475 16.0333 14.3833 16.2667 14.2 16.45L11.5 19.15C11.45 19.2 11.4125 19.2542 11.3875 19.3125C11.3625 19.3708 11.35 19.4333 11.35 19.5C11.35 19.6333 11.4041 19.75 11.5125 19.85C11.6208 19.95 11.7416 20 11.875 20ZM11.85 22C11.2333 22 10.6875 21.7958 10.2125 21.3875C9.73746 20.9792 9.4583 20.4667 9.37496 19.85C8.8083 19.7667 8.3333 19.5333 7.94996 19.15C7.56663 18.7667 7.3333 18.2917 7.24996 17.725C6.6833 17.6417 6.21246 17.4042 5.83746 17.0125C5.46246 16.6208 5.2333 16.15 5.14996 15.6C4.51663 15.5167 3.99996 15.2417 3.59996 14.775C3.19996 14.3083 2.99996 13.7583 2.99996 13.125C2.99996 12.7917 3.06246 12.4708 3.18746 12.1625C3.31246 11.8542 3.49163 11.5833 3.72496 11.35L8.09996 6.975C8.4833 6.59167 8.95413 6.4 9.51246 6.4C10.0708 6.4 10.5416 6.59167 10.925 6.975L12.8 8.85C12.8333 8.9 12.8833 8.9375 12.95 8.9625C13.0166 8.9875 13.0833 9 13.15 9C13.3 9 13.425 8.95417 13.525 8.8625C13.625 8.77083 13.675 8.65 13.675 8.5C13.675 8.43333 13.6625 8.36667 13.6375 8.3C13.6125 8.23333 13.575 8.18333 13.525 8.15L9.94996 4.575C9.76663 4.375 9.55413 4.22917 9.31246 4.1375C9.0708 4.04583 8.81663 4 8.54996 4C8.29996 4 8.04996 4.04583 7.79996 4.1375C7.54996 4.22917 7.32496 4.375 7.12496 4.575L3.59996 8.125C3.36663 8.35833 3.19996 8.63333 3.09996 8.95C2.99996 9.26667 2.97496 9.58333 3.02496 9.9C3.07496 10.1833 3.01663 10.4333 2.84996 10.65C2.6833 10.8667 2.4583 10.9917 2.17496 11.025C1.89163 11.0583 1.64163 10.9958 1.42496 10.8375C1.2083 10.6792 1.0833 10.4583 1.04996 10.175C0.949964 9.54167 0.995797 8.92083 1.18746 8.3125C1.37913 7.70417 1.7083 7.16667 2.17496 6.7L5.69996 3.175C6.09996 2.79167 6.5458 2.5 7.03746 2.3C7.52913 2.1 8.0333 2 8.54996 2C9.06663 2 9.5708 2.1 10.0625 2.3C10.5541 2.5 10.9916 2.79167 11.375 3.175L11.65 3.45L11.925 3.175C12.325 2.79167 12.7708 2.5 13.2625 2.3C13.7541 2.1 14.2583 2 14.775 2C15.2916 2 15.7958 2.1 16.2875 2.3C16.7791 2.5 17.2166 2.79167 17.6 3.175L21.825 7.4C22.2083 7.78333 22.5 8.225 22.7 8.725C22.9 9.225 23 9.73333 23 10.25C23 10.7667 22.9 11.2708 22.7 11.7625C22.5 12.2542 22.2083 12.6917 21.825 13.075L13.625 21.25C13.3916 21.4833 13.1208 21.6667 12.8125 21.8C12.5041 21.9333 12.1833 22 11.85 22Z" fill="#5E574D"/>
</g>
</svg>
