<svg width="28" height="30" viewBox="0 0 28 30" fill="none" xmlns="http://www.w3.org/2000/svg">
<path d="M25.6783 21.942C25.3191 22.6486 24.8463 23.3203 24.2889 23.9436C23.9217 23.9812 23.4594 24.0188 22.9364 24.0242C21.1586 24.0618 19.0665 23.6373 17.4552 22.7077C15.2019 21.3966 14.4121 20.4025 12.9487 18.9221C10.9992 17.122 9.2426 16.4154 7.33011 15.8485C5.40706 15.3139 3.47344 15.2145 1.61907 15.4133C1.41303 13.8443 1.41567 12.0361 1.8938 10.1984C2.0972 9.41924 2.88174 6.57401 5.50216 4.4327C9.66789 1.03133 14.9589 2.27259 15.5242 2.41498C23.2877 4.37091 29.0622 15.3005 25.6757 21.9393M12.2408 27.4256C11.0283 27.122 9.83959 26.6357 8.61919 25.9345C6.37387 24.6448 4.30289 22.6191 3.08514 20.2816C2.87645 19.9485 2.30588 18.7179 1.907 17.0011C3.56854 16.4208 5.41499 16.2677 7.16898 16.574C9.36147 16.9393 11.5698 17.9576 13.5008 19.9189C14.3329 20.7034 14.9853 21.4987 15.8808 22.2375C17.9756 24.0242 20.5379 24.9753 22.8492 25.2977C21.3251 26.5067 19.4707 27.3826 17.6005 27.7104C15.1412 28.1402 12.8615 27.5814 12.2355 27.4256M16.7208 0.230687C1.10397 -2.54737 -6.72823 20.5315 7.33275 28.2961C14.2325 32.1058 22.3579 29.2794 26.0799 22.2832C30.6867 13.6239 26.7852 2.02004 16.7208 0.230687Z" fill="#D2B48C"/>
</svg>
