<svg width="419" height="384" viewBox="0 0 419 384" fill="none" xmlns="http://www.w3.org/2000/svg">
<g opacity="0.5">
<path d="M377.459 386.179C371.031 398.615 362.57 410.437 352.598 421.407C346.028 422.069 337.756 422.731 328.398 422.826C296.589 423.488 259.155 416.017 230.323 399.656C190.006 376.58 175.874 359.084 149.689 333.03C114.808 301.348 83.3765 288.912 49.1567 278.934C14.7478 269.524 -19.8501 267.775 -53.0301 271.274C-56.7168 243.659 -56.6695 211.835 -48.1146 179.492C-44.4752 165.779 -30.4375 115.703 16.4493 78.0156C90.9861 18.1514 185.658 39.9975 195.773 42.5037C334.684 76.928 438.005 269.288 377.412 386.132M137.022 482.69C115.328 477.347 94.0584 468.788 72.222 456.446C32.0468 433.749 -5.00895 398.095 -26.7981 356.956C-30.532 351.093 -40.7412 329.436 -47.8783 299.22C-18.1486 289.006 14.8896 286.311 46.2735 291.702C85.5034 298.132 125.017 316.054 159.568 350.573C174.456 364.38 186.13 378.377 202.153 391.381C239.634 422.826 285.481 439.565 326.838 445.24C299.566 466.518 266.386 481.934 232.923 487.703C188.919 495.268 148.129 485.433 136.928 482.69M217.184 4.06008C-62.2468 -44.8338 -202.387 361.354 49.2039 498.011C172.66 565.063 318.047 515.318 384.643 392.185C467.073 239.781 397.263 35.5526 217.184 4.06008Z" fill="#CBD1B4"/>
</g>
</svg>
