<svg width="475" height="500" viewBox="0 0 475 500" fill="none" xmlns="http://www.w3.org/2000/svg">
<g opacity="0.26">
<path d="M435.615 365.7C429.52 377.477 421.499 388.671 412.044 399.06C405.815 399.687 397.973 400.314 389.1 400.403C358.941 401.03 323.45 393.955 296.115 378.462C257.89 356.61 244.491 340.042 219.665 315.369C186.594 285.367 156.794 273.591 124.35 264.142C91.7269 255.231 58.9245 253.575 27.4664 256.888C23.9711 230.738 24.0159 200.602 32.1269 169.973C35.5774 156.987 48.8866 109.567 93.3402 73.8784C164.009 17.1888 253.767 37.8764 263.357 40.2497C395.06 72.8485 493.019 255.008 435.57 365.655M207.656 457.093C187.087 452.033 166.922 443.928 146.218 432.241C108.128 410.747 72.9955 376.984 52.3371 338.027C48.797 332.474 39.1176 311.966 32.351 283.352C60.5377 273.68 91.8614 271.128 121.617 276.233C158.811 282.322 196.273 299.293 229.031 331.982C243.147 345.057 254.215 358.312 269.407 370.626C304.943 400.403 348.41 416.255 387.621 421.628C361.764 441.779 330.306 456.377 298.579 461.84C256.859 469.004 218.187 459.69 207.566 457.093M283.657 3.84478C18.7281 -42.4562 -114.14 342.191 124.395 471.601C241.444 535.097 379.286 487.99 442.426 371.387C520.578 227.066 454.391 33.6673 283.657 3.84478Z" fill="#CBD1B4"/>
</g>
</svg>
