<svg xmlns="http://www.w3.org/2000/svg" version="1.1" xmlns:xlink="http://www.w3.org/1999/xlink" width="1000" height="1000"><g clip-path="url(#SvgjsClipPath1070)"><rect width="1000" height="1000" fill="#254925"></rect><g transform="matrix(7.142857142857143,0,0,7.142857142857143,171.4285714285714,150)"><svg xmlns="http://www.w3.org/2000/svg" version="1.1" xmlns:xlink="http://www.w3.org/1999/xlink" width="92" height="98"><svg width="92" height="98" viewBox="0 0 92 98" fill="none" xmlns="http://www.w3.org/2000/svg">
<path d="M84.3717 71.6772C83.1913 73.9855 81.6377 76.1796 79.8063 78.2158C78.5999 78.3386 77.081 78.4615 75.3625 78.4791C69.5213 78.6019 62.6472 77.2152 57.3528 74.1785C49.9492 69.8956 47.3541 66.6482 42.5457 61.8123C36.1403 55.932 30.3685 53.6238 24.0847 51.7719C17.7661 50.0254 11.4127 49.7006 5.31982 50.3501C4.64282 45.2246 4.6515 39.3179 6.22247 33.3147C6.89079 30.7695 9.46856 21.4751 18.0785 14.4802C31.7659 3.369 49.1507 7.42378 51.0081 7.88894C76.5168 14.2783 95.49 49.9815 84.363 71.6684M40.2196 89.5902C36.2358 88.5985 32.3301 87.0099 28.3202 84.7192C20.9427 80.5065 14.1381 73.8889 10.1369 66.2533C9.45121 65.165 7.57646 61.1453 6.26587 55.5371C11.7252 53.6413 17.7921 53.141 23.5552 54.1416C30.7591 55.3352 38.0151 58.6615 44.3597 65.0684C47.0937 67.6312 49.2375 70.2291 52.1798 72.6426C59.0626 78.4791 67.4816 81.586 75.0761 82.6392C70.0681 86.5886 63.9751 89.4498 57.8301 90.5205C49.7496 91.9248 42.2593 90.0993 40.2023 89.5902M54.9399 0.753576C3.62734 -8.32142 -22.1071 67.0695 24.0933 92.4338C46.7639 104.879 73.4617 95.6461 85.691 72.7918C100.828 44.5049 88.0084 6.59879 54.9399 0.753576Z" fill="white"></path>
</svg></svg></g></g><defs><clipPath id="SvgjsClipPath1070"><rect width="1000" height="1000" x="0" y="0" rx="350" ry="350"></rect></clipPath></defs></svg>