<svg width="156" height="125" viewBox="0 0 156 125" fill="none" xmlns="http://www.w3.org/2000/svg">
<path d="M61.1562 70.8242L66.9868 66.9922C67.6381 66.5625 68.032 65.8359 68.032 65.0547V59.7422C68.032 59.2266 67.4625 58.9141 67.0296 59.1953L62.2131 62.3203C61.554 62.7461 61.1602 63.4805 61.1602 64.2656V70.8242H61.1562Z" fill="#FFB600"/>
<path d="M62.1586 55.332L66.9751 52.207C67.6342 51.7812 68.028 51.0468 68.028 50.2617V38.1171C68.028 37.4101 68.3868 36.7539 68.9757 36.3671L90.4257 22.4453L89.2713 28.4062C89.0139 29.7304 88.2339 30.8906 87.1029 31.6249L75.8748 38.9101C75.2157 39.3359 74.8219 40.0703 74.8219 40.8554V45.9101C74.8219 46.4257 75.3913 46.7382 75.8242 46.457L83.1912 41.6757L82.0369 47.6367C81.7795 48.9609 80.9995 50.121 79.8685 50.8554L75.8748 53.4492C75.2157 53.8749 74.8219 54.6093 74.8219 55.3945V60.6953C74.8219 61.2109 75.3913 61.5234 75.8242 61.2421L84.7201 55.4687C87.2902 53.8007 89.0685 51.1562 89.6496 48.1484L91.9506 36.2382C94.5207 34.5703 96.2992 31.9257 96.8803 28.9179L100.542 9.48432C100.675 8.77729 99.8988 8.25777 99.2982 8.64839L62.2053 32.7539C61.5501 33.1796 61.1523 33.9101 61.1523 34.6953V54.7851C61.1562 55.3007 61.7257 55.6093 62.1586 55.332Z" fill="#E65300"/>
<path d="M43.5667 101.816V99.8008C42.6385 100.996 41.449 102.082 39.4093 102.082C36.3634 102.082 34.5889 100.066 34.5889 96.8008V87.5938H38.6137V95.5273C38.6137 97.4375 39.5146 98.418 41.0512 98.418C42.5878 98.418 43.5667 97.4375 43.5667 95.5273V87.5938H47.5915V101.813H43.5667V101.816Z" fill="#E65300"/>
<path d="M63.6672 96.1133H53.7885C54.1863 97.9453 55.4577 98.8984 57.2595 98.8984C58.0707 98.8984 58.7454 98.7461 59.3967 98.4023C60.321 97.9141 61.4598 98.1094 62.2398 98.8047L63.0081 99.4844C61.6821 101.129 59.7789 102.137 57.2088 102.137C52.9461 102.137 49.791 99.1406 49.791 94.789V94.7344C49.791 90.6758 52.677 87.332 56.811 87.332C61.5534 87.332 63.7257 91.0195 63.7257 95.0508V95.1055C63.7218 95.5039 63.6945 95.7422 63.6672 96.1133ZM56.8071 90.5664C55.1379 90.5664 54.0537 91.7617 53.7339 93.5898H59.7984C59.5644 91.7891 58.5036 90.5664 56.8071 90.5664Z" fill="#E65300"/>
<path d="M66.042 101.816V85.9961C66.042 85.2266 66.4281 84.5078 67.0677 84.0859L70.0668 82.1016V101.82H66.042V101.816Z" fill="#E65300"/>
<path d="M98.5102 102.137C94.1149 102.137 90.8545 98.875 90.8545 94.789V94.7344C90.8545 90.6484 94.1383 87.332 98.5609 87.332C102.956 87.332 106.217 90.5937 106.217 94.6797V94.7344C106.217 98.8203 102.933 102.137 98.5102 102.137ZM102.242 94.7344C102.242 92.6367 100.733 90.8086 98.5063 90.8086C96.2014 90.8086 94.8247 92.5859 94.8247 94.6836V94.7383C94.8247 96.8359 96.334 98.6641 98.5609 98.6641C100.866 98.6641 102.242 96.8867 102.242 94.789V94.7344Z" fill="#E65300"/>
<path d="M113.135 102.082C111.15 102.082 108.923 101.418 107.043 99.9336L107.944 98.5469C108.381 97.875 109.258 97.6562 109.964 98.0391C111.115 98.6601 112.257 98.9805 113.24 98.9805C114.406 98.9805 114.937 98.5547 114.937 97.918V97.8633C114.937 96.9883 113.56 96.6953 111.996 96.2188C110.011 95.6367 107.757 94.707 107.757 91.9453V91.8906C107.757 89 110.089 87.3789 112.948 87.3789C114.749 87.3789 116.711 87.9883 118.244 89.0234L117.429 90.5039C117.039 91.207 116.177 91.4844 115.444 91.1562C114.488 90.7305 113.587 90.4844 112.866 90.4844C111.887 90.4844 111.384 90.9102 111.384 91.4648V91.5195C111.384 92.3164 112.733 92.6875 114.27 93.2188C116.255 93.8828 118.56 94.8359 118.56 97.4375V97.4922C118.564 100.648 116.208 102.082 113.135 102.082Z" fill="#E65300"/>
<path d="M125.623 102.082C123.638 102.082 121.411 101.418 119.531 99.9336L120.432 98.5469C120.869 97.875 121.746 97.6562 122.452 98.0391C123.603 98.6601 124.746 98.9805 125.728 98.9805C126.894 98.9805 127.425 98.5547 127.425 97.918V97.8633C127.425 96.9883 126.048 96.6953 124.484 96.2188C122.499 95.6367 120.245 94.707 120.245 91.9453V91.8906C120.245 89 122.577 87.3789 125.436 87.3789C127.238 87.3789 129.199 87.9883 130.732 89.0234L129.917 90.5039C129.527 91.207 128.665 91.4844 127.932 91.1562C126.976 90.7305 126.075 90.4844 125.354 90.4844C124.375 90.4844 123.872 90.9102 123.872 91.4648V91.5195C123.872 92.3164 125.221 92.6875 126.758 93.2188C128.743 93.8828 131.048 94.8359 131.048 97.4375V97.4922C131.052 100.648 128.692 102.082 125.623 102.082Z" fill="#E65300"/>
<path d="M85.7608 92.1875C87.0673 91.4531 88.1671 90.3008 88.1671 88.2305V88.1797C88.1671 85.2969 85.8661 83.4375 82.126 83.4375H75.2425C74.3494 83.4375 73.6279 84.1602 73.6279 85.0547V101.773H82.3366C86.4667 101.773 89.1889 100.098 89.1889 96.7461V96.6953C89.1889 94.2305 87.8824 93 85.7608 92.1875ZM77.5513 86.9727H81.5254C83.2258 86.9727 84.1657 87.6523 84.1657 88.8594V88.9101C84.1657 90.2734 83.0425 90.8477 81.2641 90.8477H77.5513V86.9727ZM85.1875 96.2461C85.1875 97.6094 84.115 98.2383 82.3366 98.2383H77.5513V94.2031H82.2079C84.2749 94.2031 85.1875 94.9648 85.1875 96.1953V96.2461Z" fill="#E65300"/>
<path d="M19.4141 101.855H23.4584V94.7227H25.3499L25.8374 94.7187C26.7188 94.7109 27.5612 94.3555 28.1813 93.7266L30.8372 91.0352L23.4623 91.0391V87.1172H32.0228C32.9159 87.1172 33.7739 86.7539 34.394 86.1094L36.9797 83.4336H21.173C20.2058 83.4336 19.418 84.2187 19.418 85.1914V101.855H19.4141Z" fill="#E65300"/>
</svg>
