<svg width="156" height="98" viewBox="0 0 156 98" fill="none" xmlns="http://www.w3.org/2000/svg">
<path d="M10.0202 57.786H12.2316L15.8799 68.8709L19.4282 57.836H22.1643L16.9793 72.8244H14.7304L11.0822 62.1273L7.43393 72.8244H5.18501L0 57.8235H2.82364L6.37194 68.8584L10.0202 57.7735V57.786Z" fill="#00615C"/>
<path d="M28.4988 57.8235V72.7118H25.8876V57.8235H28.4988Z" fill="#00615C"/>
<path d="M33.5963 57.8235H36.2076V70.3347H44.0288V72.7118H33.5963V57.8235Z" fill="#00615C"/>
<path d="M53.1869 72.7118H47.6396V57.8235H53.1869C57.8597 57.8235 61.0831 61.0389 61.0831 65.2426C61.0831 69.4464 57.8597 72.7118 53.1869 72.7118ZM53.1869 60.2131H50.2508V70.3347H53.1869C56.3104 70.3347 58.347 68.2328 58.347 65.2927C58.347 62.3525 56.3104 60.2131 53.1869 60.2131Z" fill="#00615C"/>
<path d="M76.4008 60.1631H67.9923V64.029H75.4512V66.3686H67.9923V70.3722H76.5132V72.7118H65.3811V57.8235H76.4008V60.1631Z" fill="#00615C"/>
<path d="M90.369 72.7118L86.7208 67.5197H83.4474V72.7118H80.8361V57.8235H87.4579C90.8813 57.8235 92.9803 59.6251 92.9803 62.5402C92.9803 65.0049 91.5185 66.4937 89.432 67.0693L93.4426 72.6993H90.3566L90.369 72.7118ZM87.2456 60.2131H83.4474V65.2051H87.2705C89.1446 65.2051 90.3316 64.2292 90.3316 62.6903C90.3316 61.0514 89.1821 60.2006 87.258 60.2006L87.2456 60.2131Z" fill="#00615C"/>
<path d="M107.748 57.8235H110.322V72.7118H108.136L99.9395 62.1148V72.7118H97.3657V57.8235H99.7895L107.748 68.1202V57.8235Z" fill="#00615C"/>
<path d="M126.414 60.1631H118.006V64.029H125.465V66.3686H118.006V70.3722H126.527V72.7118H115.395V57.8235H126.414V60.1631Z" fill="#00615C"/>
<path d="M136.572 64.0791C139.72 64.8423 141.345 65.9683 141.345 68.458C141.345 71.2605 139.158 72.9245 136.035 72.9245C133.761 72.9245 131.612 72.1363 129.838 70.5474L131.412 68.6707C132.836 69.9093 134.26 70.6099 136.11 70.6099C137.721 70.6099 138.746 69.8592 138.746 68.7207C138.746 67.6323 138.146 67.0567 135.385 66.4187C132.224 65.6555 130.437 64.7172 130.437 61.9522C130.437 59.3624 132.561 57.6108 135.51 57.6108C137.671 57.6108 139.395 58.2739 140.907 59.4875L139.508 61.4643C138.171 60.4634 136.834 59.9379 135.472 59.9379C133.948 59.9379 133.049 60.7261 133.049 61.727C133.049 62.903 133.723 63.4035 136.572 64.0916V64.0791Z" fill="#00615C"/>
<path d="M151.215 64.0791C154.363 64.8423 155.988 65.9683 155.988 68.458C155.988 71.2605 153.801 72.9245 150.678 72.9245C148.404 72.9245 146.255 72.1363 144.481 70.5474L146.055 68.6707C147.479 69.9093 148.903 70.6099 150.753 70.6099C152.364 70.6099 153.389 69.8592 153.389 68.7207C153.389 67.6323 152.789 67.0567 150.028 66.4187C146.867 65.6555 145.08 64.7172 145.08 61.9522C145.08 59.3624 147.204 57.6108 150.153 57.6108C152.314 57.6108 154.038 58.2739 155.55 59.4875L154.151 61.4643C152.814 60.4634 151.477 59.9379 150.115 59.9379C148.591 59.9379 147.691 60.7261 147.691 61.727C147.691 62.903 148.366 63.4035 151.215 64.0916V64.0791Z" fill="#00615C"/>
<path d="M48.3642 82.8458H50.938V97.7341H48.7516L40.5555 87.1372V97.7341H37.9817V82.8458H40.4056L48.3642 93.1425V82.8458Z" fill="#00615C"/>
<path d="M63.0072 97.9969C58.4469 97.9969 55.2609 94.5313 55.2609 90.315C55.2609 86.0988 58.4844 82.5956 63.0572 82.5956C67.63 82.5956 70.8035 86.0612 70.8035 90.2775C70.8035 94.4938 67.58 97.9969 63.0072 97.9969ZM63.0072 84.9978C60.0586 84.9978 57.9971 87.3624 57.9971 90.2775C57.9971 93.1926 60.0961 95.5947 63.0572 95.5947C66.0183 95.5947 68.0673 93.2301 68.0673 90.315C68.0673 87.3999 65.9683 84.9978 63.0072 84.9978Z" fill="#00615C"/>
<path d="M84.6593 97.7341L81.011 92.542H77.7376V97.7341H75.1264V82.8458H81.7482C85.1716 82.8458 87.2705 84.6474 87.2705 87.5625C87.2705 90.0272 85.8087 91.5161 83.7223 92.0916L87.7328 97.7216H84.6593V97.7341ZM81.5358 85.2355H77.7376V90.2274H81.5608C83.4349 90.2274 84.6218 89.2516 84.6218 87.7127C84.6218 86.0737 83.4724 85.223 81.5483 85.223L81.5358 85.2355Z" fill="#00615C"/>
<path d="M95.1043 97.7341V85.273H90.394V82.8458H102.463V85.273H97.753V97.7341H95.1043Z" fill="#00615C"/>
<path d="M108.71 91.466V97.7341H106.099V82.8458H108.71V89.0389H115.807V82.8458H118.418V97.7341H115.807V91.466H108.71Z" fill="#00615C"/>
<path d="M93.0053 17.8753C92.9303 17.3123 92.4805 17.0996 92.0058 17.4124L81.0235 24.4187C80.5488 24.7189 80.5488 25.2194 81.0235 25.5322L87.0332 29.3731C87.5079 29.6734 88.2951 29.6734 88.7698 29.3731L93.1552 26.5331C93.63 26.2203 93.9673 25.5071 93.8924 24.9441L92.9928 17.8753H93.0053Z" fill="#00615C"/>
<path d="M78.8496 0.384718C78.4873 -0.12824 77.8751 -0.12824 77.5127 0.384718L73.2523 6.31501C72.89 6.82797 73.0149 7.54111 73.5271 7.89142L77.2254 10.4062C77.7501 10.7565 78.5997 10.7565 79.1245 10.4062L82.8227 7.89142C83.3474 7.54111 83.4724 6.82797 83.0975 6.31501L78.8371 0.384718H78.8496Z" fill="#FFB600"/>
<path d="M89.532 16.5491C90.0192 16.2489 90.2691 15.5608 90.0942 15.0228L88.1701 8.86729C87.9952 8.32931 87.4704 8.12913 86.9832 8.4294L81.036 12.1202C80.5488 12.4205 80.5488 12.9084 81.036 13.2087L87.0706 16.9996C87.5454 17.2998 88.3325 17.2998 88.8198 16.9996L89.532 16.5491Z" fill="#00615C"/>
<path d="M69.5041 8.30429C69.0168 8.00402 68.4921 8.2042 68.3172 8.74218L66.3681 14.8727C66.1932 15.4106 66.4431 16.0987 66.9303 16.4115L77.3378 22.9924C77.8126 23.2927 78.5997 23.2927 79.0745 22.9924L85.1216 19.0764C85.5963 18.7636 85.5963 18.2757 85.1216 17.9754L69.5166 8.3168L69.5041 8.30429Z" fill="#00615C"/>
<path d="M95.8414 27.9844C95.9539 27.4214 95.654 27.2212 95.1792 27.534L81.036 36.8423C80.5613 37.155 80.5613 37.668 81.036 37.9683L87.0581 41.8718C87.5329 42.1845 88.3075 42.1845 88.7948 41.8718L92.9178 39.1944C93.3926 38.8816 93.8674 38.181 93.9798 37.618L95.8414 27.9718V27.9844Z" fill="#00615C"/>
<path d="M61.283 27.3963C60.8083 27.0836 60.5084 27.2962 60.6084 27.8467L62.47 37.4929C62.5824 38.0559 63.0572 38.7565 63.5319 39.0567L77.3253 47.9021C77.8001 48.2024 78.5872 48.2024 79.062 47.9021L85.0966 43.9861C85.5714 43.6734 85.5714 43.1729 85.0966 42.8601L61.2705 27.3963H61.283Z" fill="#00615C"/>
<path d="M85.0966 31.45C85.5714 31.1372 85.5714 30.6367 85.0966 30.3365L64.469 17.2623C63.9942 16.962 63.5569 17.1747 63.507 17.7377L62.8823 24.9191C62.8323 25.4821 63.1821 26.1953 63.6569 26.508L77.3628 35.3785C77.8376 35.6912 78.6122 35.6912 79.087 35.3785L85.1091 31.45H85.0966Z" fill="#00615C"/>
</svg>
